{"title":"The.Wannabe.2015.WEBRip.480p.x264.AAC-VYTO [P2PDL]","uid":12918039,"size":359958579,"categoryP":"video","categoryS":"movies","magnet":"?xt=urn:btih:371ae03ee29096649c68ebec585a6343e0155166&amp;dn=The.Wannabe.2015.WEBRip.480p.x264.AAC-VYTO+%5BP2PDL%5D&amp;tr=udp%3A%2F%2Ftracker.leechers-paradise.org%3A6969&amp;tr=udp%3A%2F%2Fzer0day.ch%3A1337&amp;tr=udp%3A%2F%2Fopen.demonii.com%3A1337&amp;tr=udp%3A%2F%2Ftracker.coppersurfer.tk%3A6969&amp;tr=udp%3A%2F%2Fexodus.desync.com%3A6969","seeders":0,"leechers":1,"uploader":"VYTOP2PDL","files":7,"time":1449379890,"description":"The.Wannabe.2015.WEBRip.480p.x264.AAC-VYTO\r\n\r\n\r\nGenre: Crime, Drama, Mystery     \nhttp://www.imdb.com/title/tt3059816/\r\n\r\n\r\nGeneral\r\nFormat                         : MPEG-4\r\nFile size                      : 336 MiB\r\nDuration                       : 1h 30mn\r\nOverall bit rate               : 517 Kbps\r\n\r\nVideo\r\nFormat                         : AVC\r\nBit rate                       : 482 Kbps\r\nWidth                          : 720 pixels\r\nHeight                         : 304 pixels\r\nDisplay aspect ratio           : 2.35:1\r\nFrame rate mode                : Constant\r\nFrame rate                     : 23.976 fps\r\nBit depth                      : 8 bits\r\nStream size                    : 313 MiB (93%)\r\nWriting library                : x264\r\n\r\nAudio\r\nFormat                         : AAC\r\nBit rate mode                  : Variable\r\nBit rate                       : 31.9 Kbps\r\nChannel(s)                     : 2 channels\r\nChannel positions              : Front: L R\r\nSampling rate                  : 48.0 KHz\r\nStream size                    : 20.7 MiB (6%)\r\nLanguage                       : English\r\n\r\nSubtitle                       : Yes (English)\r\n \nhttp://ititli.com/78 \nhttp://ititli.com/7e \nhttp://ititli.com/7j \nhttp://ititli.com/7k \nhttp://ititli.com/7o \nhttp://ititli.com/7G \nhttp://ititli.com/7H\r\n\r\n----------------------------------------------------------------------------------------------------\r\n\r\n\r\nEncoder Notes: Looking For Early Access To Anything You Can Provide WEBDL, DVDScr, DVDR, BluRay,\r\nDirect Audio, Music Releases and Seedboxes. If You Got anything to offer please contact us.\r\n\r\nSupport us by donating BC - 1FgwdzPsd1y25Gea8wP1qni35uGCtmkRCD\r\n\r\nSend some love!\r\nFind us, and Join us!","torrent":{"xt":"urn:btih:371ae03ee29096649c68ebec585a6343e0155166","amp;dn":"The.Wannabe.2015.WEBRip.480p.x264.AAC-VYTO+%5BP2PDL%5D","amp;tr":["udp%3A%2F%2Ftracker.leechers-paradise.org%3A6969","udp%3A%2F%2Fzer0day.ch%3A1337","udp%3A%2F%2Fopen.demonii.com%3A1337","udp%3A%2F%2Ftracker.coppersurfer.tk%3A6969","udp%3A%2F%2Fexodus.desync.com%3A6969"],"infoHash":"371ae03ee29096649c68ebec585a6343e0155166","infoHashBuffer":{"type":"Buffer","data":[55,26,224,62,226,144,150,100,156,104,235,236,88,90,99,67,224,21,81,102]},"announce":[],"urlList":[]}}